# xmcd
#
# Track frame offsets:
# 150
# 21299
# 33469
# 52316
# 66377
# 80933
# 100633
# 117848
# 136328
# 139591
# 156398
#
# Disc length: 2312 seconds
#
#
# Revision: 0
# Processed by: cddbd v1.4PL0 Copyright (c) Steve Scherf et al.
# Submitted via: FreeRIP 2.11 
#
DISCID=a009060b
DTITLE=Mo Leverett - Poetic Justice
DYEAR=2003
DGENRE=Contemporary Christian
TTITLE0=Like A Canopy
TTITLE1=Eden's Stream
TTITLE2=In The Morning Light
TTITLE3=Advent Of Autumn
TTITLE4=Another Child
TTITLE5=Flock Of Angels
TTITLE6=Master Of Mystery
TTITLE7=Sacred Desires
TTITLE8=Life Of Sacrifice
TTITLE9=Narrow Little Road
TTITLE10=Sons Of Cain
EXTD=The Early Years
EXTT0=
EXTT1=
EXTT2=
EXTT3=
EXTT4=
EXTT5=
EXTT6=
EXTT7=
EXTT8=
EXTT9=
EXTT10=
PLAYORDER=
